<svg version="1.1" xmlns="http://www.w3.org/2000/svg" width="259" height="16" viewBox="0 0 259 16" enable-background="new 0 0 259 16"><g enable-background="new    "><g fill="#43a6df"><polygon fill-rule="evenodd" points="15,2 0,2 0,11 4,11 9,15 9,11 15,11 			"/><path d="m20 1v12h16v-12h-16m15 10.2l-3.4-4.3 3.4-4.1v8.4m-.7-9.2l-4.3 5.2v-.2h-4v.2l-4.3-5.2h12.6m-13.3.8l3.4 4.1-3.4 4.3v-8.4m4.1 4.9l.5.6.4-.3h4l.4.3.5-.6 3.4 4.3h-12.7l3.5-4.3"/></g><g fill-rule="evenodd"><path fill="#69bf5b" d="m48 1c-3.9 0-7 3.1-7 7s3.1 7 7 7c3.9 0 7-3.1 7-7s-3.1-7-7-7m.8 10.5c0 0 0 .1 0 0-.2 0-.3-.1-.4-.2 0 0-.3-.4-.2-.4-.1.1-.4 0-.5-.1-.2-.1-.2-.4-.5-.3-.2 0-.2.1-.4 0-.1 0-.2-.1-.4-.2-.1-.1-.4-.2-.5-.3-.1-.1 0-.3-.1-.5-.1-.1-.2-.3-.3-.3.1 0-.1-.3-.1-.3-.1-.1-.5-.4-.4-.6 0 0-.2-.1-.2-.1 0 .1 0 .2.1.3 0 .1.1.2.2.3.1.2.2.4.2.6-.1 0-.1-.1-.1-.2-.1-.1-.2-.1-.3-.2 0-.2-.2-.3-.2-.4-.1-.1-.1-.3-.2-.4-.1-.1-.2-.2-.3-.3 0 0-.4-.4-.3-.5-.2 0-.3-.4-.2-.5 0-.1 0-.7.1-.7-.1 0-.1-.2-.1-.3 0 0 .2.1.2.1.1 0 .1-.1.1-.2 0-.1-.1-.1-.2-.2 0 0-.4-.3-.4-.2 0-.1 0-.1 0-.2-.2.1-.1-.2-.2-.2 0 0-.1 0-.1-.1.5-.8 1.3-1.5 2.1-2 .1 0 .1 0 .2 0 .2 0 .3.2.4.2 0 0 0-.1 0-.2 0-.1.1-.1.2-.1.1 0 .2 0 .3 0-.1-.1-.1-.2-.2-.2-.1-.1-.3 0-.4.1-.1 0-.1.1-.2.1 0 0-.1 0-.1 0 .3-.1.6-.3.9-.4.1 0 .1.1.2.2-.1 0-.1.2 0 .2.1.1.3 0 .5 0 0 0 .4.1.3 0 .1.1.1.2.1.3.1-.1 0-.2 0-.3 0 0 .2-.1.2-.1.1 0 0-.1-.1-.1-.1-.1-.4-.1-.3-.3.1-.1.3 0 .4 0 .1.1.2.2.1.2.1 0 .4.1.3.2 0-.1.1-.1.1-.1.1 0 .1.2.1.2.1.2.3-.2.4-.2-.2-.1.1-.1.2-.1.1 0 .2.2 0 .2.1.1.1.3-.1.3-.1 0-.3-.2-.4 0-.1.1-.1.2-.2.3-.1.1-.3.1-.5.1.1 0-.1.2-.2.3-.1.1-.1.1-.1.2 0 .1 0 .2 0 .3.2 0 .2.2.2.2.2 0 .3 0 .5 0 .1 0 .3.1.4.2 0-.1.2 0 .3 0 .1.1.1.2.1.3 0 .1.2.4.3.3 0 0 .2-.1.2-.2-.1-.1-.2-.2-.1-.3.1-.1.2-.1.3-.3.1-.2-.2-.2-.2-.3 0-.1.1-.1.1-.2 0-.1-.1-.3 0-.3.1-.1.5 0 .6.1s.3.1.4.2c0 0 0 0 0 0 .1.1.1.2 0 .2.1 0 .3.1.2.1.1 0 .1 0 .2 0 .1 0 .1-.1.2-.1 0 0 .1-.2.2-.2.1 0 .1.1.1.2 0 .1.1.1.2.2.1.2 0 .3.2.4.1 0 .2-.1.2.1 0 0 .1-.1.1-.1 0 .1.1.3.2.3 0 0 0 .2 0 .2-.1.1-.2.1-.3.1 0 0-.2.2-.2.2-.1-.1-.3-.1-.5-.1-.2 0-.3 0-.5.1-.1 0-.1.1-.2.1 0 0-.1.2-.1.2.1 0 .1-.1.2-.2.1-.1.3-.1.4-.1.1 0 .2.1.1.1-.1 0-.1 0-.2 0l.2.1c.2.1-.1.3-.2.3.1 0-.2.1-.2.1-.1 0-.2 0-.3.1-.1.1 0 .3-.1.2-.1.1-.3.1-.4.2 0 .4-.2.6-.3.4-.1 0 0 .1-.1.2 0 .1 0 .1 0 .1s.1.1.2.1c0 0-.1.1-.1.1 0 .1-.1.2-.1.3-.2.1-.4.2-.4.2-.2.2-.3.4 0 .4 0 0 0 .3 0 .3 0 .1.1.4-.1.3-.1 0-.1-.3-.2-.4 0-.1 0-.1-.1-.2-.1.1-.1 0-.2 0-.1-.1-.2 0-.3-.1-.1.1-.2.1-.3-.1 0 .1 0 .2 0 .2 0 .1-.1.1-.2 0-.1-.1-.4.1-.5 0 0 0 0 0 .1.1 0 .1-.1 0-.1.1-.1 0-.1.1-.2.2.1.2 0 .4 0 .7 0 .2.1.5.3.6.1 0 .4.1.4 0 .1-.1.1-.2.2-.3 0-.1.1-.2.2-.2.4 0 .1.3 0 .5 0 .1 0 .3-.1.4 0 0 .1 0 .1 0 0 0 0-.1 0-.1.1.1.2.1.3 0 .1.1.2.2.2.3 0 .1.1.3 0 .3-.1 0 0 .3 0 .3.1.2.3.3.4.2 0 .1 0 .3-.1.3.1 0-.1-.2-.1-.3m.2 2.2c0 0 0-.1 0-.1 0-.1.1-.2.1-.4-.1 0-.1-.1-.1-.2 0-.2.2-.3.3-.4.1-.1.1-.3.1-.4 0-.2 0-.4-.1-.7 0 .1.2 0 .2.1 0-.1.1-.1.1-.2 0-.1.1-.1.2-.1.1-.1.3-.3.4-.1.1.1-.1.2 0 .3 0-.1 0-.2.1-.3.1-.2.2 0 .4.1.2 0 .2.1.3.2 0 0 .1-.1.2-.1.2 0 .2.1.4.2.1.1.3.2.3.3.1 0 .1 0 .2.1.1 0 .2 0 .2.1-.9.8-2 1.4-3.3 1.6"/><path fill="#43a6df" d="m75.7 9.2l-.1-.2c-.2-.2-.3-.4-.4-.6-.1 0-.1-.1-.2-.1-.1-.1-.3-.2-.7-.4.7-.3 1.1-.8 1.3-1.3.1-.2.1-.4 0-.6-.1-.3-.1-.5-.1-.6 0-.2-.1-.4-.4-.5-.2-.1-.4-.2-.8-.3-.3-.1-.6-.1-1-.1l-.7.2.2-.5c.2-.7.1-1.3-.2-2l-.1-.1c-.3-.5-.8-.8-1.4-1-.6-.2-1.3-.1-1.8.2-.8.4-1.2.9-1.2 1.4l-.1.2-.3-.5c-.3-.5-.8-.8-1.3-1-.5-.1-.9-.1-1.3.2-.4.3-.7.7-.8 1.3-.1.6 0 1.2.3 1.8l.1.2-.5-.2c-.6-.1-1.3-.1-1.9.3-.6.3-1 .8-1.3 1.4-.3.6-.2 1.2.1 1.7.1.2.3.4.5.6.4.1.7.3 1.1.3h.2l-.3.3c-.3.2-.5.5-.6.9-.1.4-.1.8.2 1.1.1.2.3.4.4.4.2.2.4.3.6.3.5.1 1 .1 1.5-.1l-.4.6-.1.3c-.2.6-.1 1.3.2 1.9 0 .1.1.2.2.3.1.1.2.2.3.4.2.2.6.4 1 .5.3.1.6.1.9.1.3 0 .7-.1 1-.3.3-.2.6-.4.8-.7.2-.2.3-.5.4-.8v-.1c.4.5.9.8 1.2.8.1 0 .1 0 .2 0 .2 0 .4 0 .6 0 .1 0 .3-.1.4-.2.4-.2.6-.5.8-1 .1-.5.1-.9 0-1.5.2.2.5.3.7.3.7.2 1.3.2 1.9-.1.6-.3 1-.8 1.2-1.5.1-.5 0-1.1-.3-1.7m-3.1-3.5l.3-.1c.4-.2.7-.2 1.1-.2.4 0 .6.2.8.5l.1.3v.2c-.2.4-.5.7-1 .9-.1.1-.4.1-.7.2l-2.6.3v-.1-.1l.1-.1 1.9-1.8m-3.7-2.7c.1-.4.4-.7.8-.9.4-.2.8-.3 1.2-.1.5.1.8.3 1 .7.1.2.2.5.2.7l-.1.5c-.1.2-.2.4-.3.6l-1.9 2.3c-.1-.1-.3-.2-.6-.4l-.2-3.2-.1-.2m-3.2-.7c.1-.1.3-.1.5 0 .4.1.7.4 1 .9.1.3.2.5.3.7l.4 2.5-.3.1-1.9-2-.1-.2c-.2-.4-.3-.8-.2-1.1-.1-.5 0-.7.3-.9m-2.6 5.9h-.2c-.4-.1-.7-.3-.8-.6-.2-.3-.2-.6 0-.9.2-.4.4-.7.8-.9.4-.2.8-.3 1.2-.2l.6.2 1.9 1.3c-.2.2-.3.4-.3.6l-3.2.5m5.1 5.6l-.1.2c-.2.4-.4.7-.8.9-.1.1-.2.1-.3.1-.1 0-.2 0-.3.1-.2 0-.4 0-.6 0 0 0-.1 0-.1 0-.4-.1-.7-.3-.9-.7-.1-.3-.2-.5-.2-.7l.1-.5c.1-.2.2-.4.3-.6l1.8-2.1c.3.1.5.2.7.2 0 .2.1.6.1 1.1.1.5.1.9.1 1.2v.8zm.2-3.8c-.4 0-.7-.1-1-.4-.3-.3-.4-.6-.4-1 0 0 0-.1 0-.1 0-.3.2-.6.4-.9.3-.3.6-.4 1-.4.4 0 .7.1 1 .4.3.3.4.6.4.9 0 0 0 .1 0 .1 0 .4-.1.8-.4 1-.3.3-.7.4-1 .4m2.5 4.1c-.1.1-.3.1-.5.1-.4-.1-.7-.4-1-.9l-.3-.7-.3-1.8.6-.3 1.6 1.5.1.2c.2.4.3.8.3 1.1-.1.4-.3.7-.5.8m4.1-3.3c-.1.4-.4.7-.7.9-.4.2-.8.3-1.2.1-.2 0-.4-.2-.6-.3l-2.3-1.8.1-.3.1-.3 3.3-.2h.2c.4.1.6.3.8.6.2.2.3.5.3.9v.4"/></g></g><path fill="#ff3600" d="m93 6.2c-.1-.6-.3-1.1-.5-1.7-.6-1.6-1.6-3.2-3.2-3.9-.6-.3-1.3-.4-2-.5-.3 0-.7-.1-1-.1-.2 0-.4 0-.6 0-.3 0-.6 0-.9.1-.6.1-1.1.3-1.6.5-.2.1-.4.2-.6.3-.1 0-.2.1-.2.1 0 0 0 .1 0 .1 0 .1 0 .2 0 .3 0 .4-.1.8 0 1.2 0 .1.1.4.2.4.2 0 .4-.3.6-.4.3-.4.6-.8 1.1-.9.5-.2 1.2-.3 1.7-.3 1.6-.1 3.4.2 4.6 1.4.2.2.3.4.5.5.5.8.8 1.7 1 2.6.1.4.1.9 0 1.3-.2.8-.6 1.4-1.1 2-.4.4-.8.7-1.2 1-.2.2-.5.3-.7.5-.3.2-.5.5-.6.8-.4.8-.5 1.7-.4 2.6 0 .2 0 .4.1.5 0 .1 0 .1 0 .2.1.1.2.1.3.1.1 0 .2-.1.2-.2 0-.2 0-.3 0-.5-.1-.3-.1-.7-.1-1 0-.6.3-1.2.7-1.6.4-.5 1-.7 1.5-1.1 1-.8 1.9-1.8 2.2-3 0-.4.1-.8 0-1.3m-10.2 5c.1.4.4.6.6.9.7.6 1.7.9 2.6.8.4 0 .7-.1 1.1-.2.2-.1.4-.4.1-.5 0 0-.1 0-.1 0-.1 0-.2 0-.3.1-.2.1-.4.1-.5.1-.5.1-1.1 0-1.6-.4-.4-.3-.7-.6-.9-.9-.2-.2-.3-.4-.6-.4-.3-.1-.4.2-.4.5m-.2 1.6c.2.3.5.5.8.7.8.6 1.7.9 2.7 1 .3 0 .6 0 .8 0 .1 0 .2 0 .3-.1.3-.1.2-.6 0-.7-.1 0-.3 0-.4 0-.3 0-.5 0-.8 0-.7 0-1.4-.2-2-.6-.2-.1-.4-.3-.6-.5-.1-.1-.2-.3-.4-.3-.1 0-.2 0-.3 0-.1 0-.2 0-.2.1-.1.1.1.3.1.4m5 2.4c-.1 0-.3.1-.4.1-.2.1-.5.2-.8.2-.4 0-.7 0-1-.1-.3-.1-.6-.1-.9-.2-.2-.1-.5-.2-.7-.3-.1 0-.1-.1-.2-.1-.2-.2-.3-.4-.5-.6-.1-.1-.2-.2-.3-.2-.1 0-.2.1-.3.2-.1.1-.1.1-.1.2-.2.4.3.8.6 1 .3.2.7.4 1.1.5.8.3 1.8.5 2.7.2.3-.1.5-.2.7-.4.2-.3.3-.5.1-.5"/><path fill-rule="evenodd" fill="#fc0" d="m87.4 7c-.1 0-.1 0-.2 0-.1 0-.2 0-.2.1-.2.1-.4.3-.5.4-.1.1-.2.2-.3.3 0-.2 0-.5-.2-.7-.3-.4-.9-.5-1.3-.3-.2.1-.3.3-.4.6-.1.4-.1 1 0 1.4 0 .1.1.3.1.4 0 .1 0 .1.1.2.1.1.2.1.3.1.3 0 .2-.5.2-.7 0-.4-.1-.8 0-1.3.1-.2.2-.4.3-.5.2-.1.3 0 .4.2.1.3.1.6.1.8 0 .1 0 .2.1.3 0 0 0 .1.1.1.1 0 .2-.1.3-.2.2-.2.4-.3.6-.5.1-.1.3-.2.4-.1 0 0 .1.1.1.1.1.2 0 .4-.1.6-.2.4-.3.7-.5.9-.1.2-.3.4-.4.6-.1.1-.1.3-.1.4 0 .1.1.2.2.2.1 0 .2-.1.2-.2.1-.1.2-.3.3-.4.2-.3.4-.5.6-.8.2-.3.3-.7.3-1.1 0-.3-.1-.8-.5-.9"/><g enable-background="new    "><path fill="#db2623" d="m111 2h-10c-1.7 0-3 1.3-3 3v5c0 1.7 1.3 3 3 3h10c1.7 0 3-1.3 3-3v-5c0-1.7-1.3-3-3-3m-3 6l-4 2v-5l4 2v1"/></g><g enable-background="new    "><g fill-rule="evenodd"><path fill="#3b579d" d="m134.1 0h-14.2c-.5 0-.9.4-.9.9v14.2c0 .5.4.9.9.9h7.1v-6h-3v-3h3v-1c0-2.1 1.2-4 3-4 .9 0 1.8 0 2 0v3h-1c-1 0-1 .3-1 1v1h3l-1 3h-2v6h4.1c.5 0 .9-.4.9-.9v-14.2c0-.5-.4-.9-.9-.9"/><path fill="#da3c28" d="m147.3 7.6c0-1.2 2.5-1.5 2.5-4 0-1.2-.6-2.1-1.6-2.8h1.4l1.4-.8h-4.3c-1.4 0-3 .4-4.1 1.2-.9.7-1.4 1.7-1.4 2.8 0 1.9 1.6 3.3 3.6 3.3.2 0 .5 0 .7 0-.1.3-.2.5-.2.8 0 .6.3 1 .7 1.4-1.4.1-3 .3-4.2 1-1 .6-1.7 1.5-1.7 2.5 0 .4.1.9.4 1.3.9 1.3 2.8 1.7 4.3 1.7 2 0 4.2-.6 5.3-2.3.3-.5.5-1.1.5-1.7-.1-2.7-3.3-3.1-3.3-4.4m-1.5-.9c-1.9 0-2.7-2.3-2.7-3.7 0-.5.1-1.1.5-1.5.4-.4 1-.7 1.5-.7 1.9 0 2.8 2.4 2.8 3.8 0 .6-.1 1.1-.5 1.5-.5.4-1.1.6-1.6.6m0 8.4c-1.7 0-3.9-.7-3.9-2.5 0-2 2.5-2.5 4.2-2.5.2 0 .3 0 .5 0 1 .7 2.4 1.5 2.4 2.8 0 1.6-1.7 2.2-3.2 2.2m7.2-8.1v-2h-1v2h-2v1h2v2h1v-2h2v-1h-2"/><path fill="#009fe3" d="m176.2 9.6c.1-.5.2-1 .2-1.6 0-4.1-3.3-7.3-7.3-7.3-.5 0-1.1.1-1.6.2-.7-.6-1.6-.9-2.5-.9-2.2 0-4 1.8-4 4 0 .9.3 1.8.8 2.4-.1.5-.2 1-.2 1.6 0 4.1 3.3 7.3 7.3 7.3.5 0 1.1-.1 1.6-.2.7.5 1.5.8 2.4.8 2.2 0 4-1.8 4-4 .1-.8-.2-1.6-.7-2.3m-7 3.3c-2.3 0-4.3-1-4.3-2.3 0-.6.3-1.1 1.1-1.1 1.1 0 1.2 1.6 3.1 1.6.9 0 1.5-.4 1.5-.9 0-.7-.6-.8-1.5-1l-1.5-.4c-1.5-.4-2.7-1-2.7-2.7 0-2.1 2.1-2.9 3.9-2.9 2 0 4 .8 4 2 0 .6-.4 1.1-1.1 1.1-1 0-1-1.2-2.7-1.2-.9 0-1.5.3-1.5.8 0 .6.6.7 1.4.9l1.1.2c1.5.3 3.2 1 3.2 2.8 0 2.1-2 3.1-4 3.1"/></g><path fill="#43c7df" d="m186.5 6.9c1 0 1.9-.9 1.9-1.9 0-1.1-.8-1.9-1.9-1.9-1 0-1.9.9-1.9 1.9.1 1 .9 1.9 1.9 1.9m2.1.4c-.2-.1-.4-.3-.6-.4-.4.4-.9.6-1.5.6-.6 0-1.1-.2-1.5-.6-.8.4-1.8 1.2-2 3-.1.9.7 1 .7 1 0 .1-.1.4.4.6.4.2 1 .4 1.9.4 0-.1 0-.1 0-.2.3-2.4 1.4-3.7 2.6-4.4m3.9-.4c1.6 0 2.9-1.4 2.9-3 0-1.7-1.3-3-2.9-3s-2.9 1.4-2.9 3c0 1.7 1.3 3 2.9 3m5.5 4.8c-.3-2.8-1.8-4.1-3.1-4.7-.7.6-1.5.9-2.4.9-.9 0-1.8-.3-2.4-.9-1.3.6-2.8 2-3.1 4.7-.2 1.4 1.1 1.6 1.1 1.6 0 .2-.1.6.6.9.7.3 1.8.7 3.6.7.1 0 .2 0 .3 0 1.9 0 2.9-.4 3.6-.7.7-.3.6-.7.6-.9.1 0 1.4-.2 1.2-1.6"/><path fill-rule="evenodd" fill="#5ea9dd" d="m219 2.5c-.6.3-1.2.4-1.8.5.6-.4 1.1-1 1.4-1.8-.6.4-1.3.7-2 .8-.6-.6-1.4-1-2.2-1-1.7 0-3.1 1.5-3.1 3.3 0 .3 0 .5.1.8-2.5-.1-4.8-1.4-6.3-3.4-.3.5-.4 1-.4 1.7 0 1.1.5 2.1 1.4 2.7-.5 0-1-.2-1.4-.4 0 1.6 1.1 2.9 2.5 3.2-.3.1-.5.1-.8.1-.2 0-.4 0-.6-.1.4 1.3 1.5 2.2 2.9 2.3-1.1.9-2.4 1.4-3.8 1.4-.3 0-.5 0-.7 0 1.4.9 3 1.5 4.7 1.5 5.7 0 8.7-5 8.7-9.3 0-.1 0-.3 0-.4.5-.6 1-1.2 1.4-1.9"/><g opacity=".541"><path fill="#5b06c6" d="m224 0v16h16v-16h-16m9 8v5h-2v-5l-3-6h2l2 4 2-4h2l-3 6"/></g><path fill="#ffd800" d="m253.4 5c.5 0 1-.2 1.4-.6.4-.4.6-.9.6-1.4s-.2-1-.6-1.4c-.4-.4-.9-.6-1.4-.6-.5 0-1 .2-1.4.6-.4.4-.6.9-.6 1.4s.2 1 .6 1.4c.4.4.8.6 1.4.6m1.4 4.3c.8-.2 1.5-.6 2.1-1.2 0 0 0 0 .1-.1l-1-1.7c-.2.2-.5.4-.8.5-.6.2-1.1.2-1.7.1-.2 0-.3-.1-.4-.3-.1-.1-.1-.1-.1-.2l-2.1-1c-.4.3-.7.6-1 1-.3.6-.6 1.2-.7 1.9-.1.6-.2 1.2-.2 1.9 0 .2-.1.4-.2.6-.4.8-1 1.3-1.8 1.7-.4.2-.8.3-1.1.4l1 2.1c.6-.1 1.1-.4 1.6-.6.8-.4 1.5-.9 2.2-1.6.2-.3.5-.5.7-.8.7.2 1.4.5 1.9 1 .5.4.8.9 1.2 1.4.1.2.2.4.3.6l1.8-1.5c-.3-.6-.6-1.1-1-1.5-.7-.8-1.6-1.5-2.5-2v-.7c.6.1 1.2.1 1.7 0"/></g></svg>