<?xml version="1.0" encoding="utf-8"?>
<!-- Generator: Adobe Illustrator 16.0.0, SVG Export Plug-In . SVG Version: 6.00 Build 0)  -->
<!DOCTYPE svg PUBLIC "-//W3C//DTD SVG 1.1//EN" "http://www.w3.org/Graphics/SVG/1.1/DTD/svg11.dtd">
<svg version="1.1" id="Layer_1" xmlns="http://www.w3.org/2000/svg" xmlns:xlink="http://www.w3.org/1999/xlink" x="0px" y="0px"
	 width="164px" height="42px" viewBox="0 0 164 42" enable-background="new 0 0 164 42" xml:space="preserve">
<path fill-rule="evenodd" clip-rule="evenodd" fill="#F27935" d="M43.756,35.315l-2.157-2.157C37.013,38.564,30.161,42,22.5,42
	S7.991,38.561,3.405,33.154l-2.161,2.161C0.56,36,0,35.768,0,34.8v-7.04C0,26.792,0.792,26,1.76,26H8.8
	c0.968,0,1.2,0.561,0.516,1.244l-1.766,1.767c2.818,3.499,6.842,5.976,11.451,6.825V23h-3c-1.104,0-2-0.896-2-2v-2
	c0-1.104,0.896-2,2-2h3v-5.038c-1.8-1.155-3-3.164-3-5.462C16,2.91,18.91,0,22.5,0S29,2.91,29,6.5c0,2.298-1.2,4.307-3,5.462V17h3
	c1.104,0,2,0.896,2,2v2c0,1.104-0.896,2-2,2h-3v12.834c4.608-0.848,8.645-3.311,11.462-6.813l-1.777-1.777
	C35,26.561,35.232,26,36.2,26h7.04c0.967,0,1.76,0.792,1.76,1.76v7.04C45,35.768,44.439,36,43.756,35.315z M22.5,5
	C21.671,5,21,5.672,21,6.5S21.671,8,22.5,8S24,7.328,24,6.5S23.329,5,22.5,5z"/>
<path fill-rule="evenodd" clip-rule="evenodd" fill="#DE5921" d="M43.756,35.329l-2.157-2.157C37.113,38.459,30.458,41.854,23,42
	V7.913c0.58-0.208,1-0.748,1-1.399c0-0.65-0.42-1.191-1-1.398V0.064c3.352,0.26,6,3.031,6,6.449c0,2.298-1.2,4.307-3,5.462v5.038h3
	c1.104,0,2,0.896,2,2v2c0,1.104-0.896,2-2,2h-3v12.834c4.608-0.848,8.645-3.311,11.462-6.813l-1.777-1.777
	C35,26.574,35.232,26.014,36.2,26.014h7.04c0.967,0,1.76,0.792,1.76,1.76v7.04C45,35.781,44.439,36.014,43.756,35.329z"/>
<g>
	<g>
		<path fill="#323A45" d="M76.672,10.655c-0.648,1.057-1.344,2.304-2.088,3.744c-0.744,1.44-1.488,2.946-2.232,4.519
			c-0.744,1.572-1.464,3.145-2.16,4.716c-0.696,1.572-1.332,3.006-1.908,4.302c-0.576-1.296-1.212-2.729-1.908-4.302
			c-0.696-1.571-1.417-3.144-2.16-4.716c-0.744-1.572-1.488-3.078-2.232-4.519c-0.744-1.44-1.44-2.688-2.088-3.744h-3.06
			c-0.216,1.8-0.414,3.708-0.594,5.724c-0.18,2.017-0.348,4.087-0.504,6.211c-0.156,2.123-0.294,4.283-0.414,6.479
			S55.096,33.443,55,35.604h3.42c0.12-3.359,0.264-6.689,0.432-9.99c0.167-3.299,0.383-6.365,0.648-9.197
			c0.239,0.408,0.558,0.996,0.954,1.764c0.396,0.769,0.822,1.638,1.278,2.609c0.456,0.973,0.941,2.005,1.458,3.097
			c0.516,1.093,1.002,2.154,1.458,3.186c0.456,1.032,0.882,1.993,1.278,2.88c0.396,0.889,0.714,1.62,0.954,2.196h2.808
			c0.24-0.576,0.558-1.308,0.954-2.196c0.396-0.887,0.822-1.848,1.278-2.88c0.456-1.031,0.941-2.093,1.458-3.186
			c0.516-1.092,1.002-2.124,1.458-3.097c0.456-0.972,0.882-1.841,1.278-2.609c0.396-0.768,0.714-1.355,0.954-1.764
			c0.264,2.832,0.48,5.898,0.648,9.197c0.167,3.301,0.312,6.631,0.432,9.99h3.42c-0.409-8.592-1.021-16.908-1.836-24.948H76.672z
			 M98.506,18.414c-0.564-0.637-1.309-1.129-2.232-1.477s-2.059-0.521-3.402-0.521c-1.176,0-2.268,0.09-3.275,0.27
			s-1.729,0.366-2.16,0.559l0.396,2.771c0.407-0.168,1.025-0.33,1.854-0.486c0.828-0.155,1.793-0.234,2.898-0.234
			c0.863,0,1.565,0.127,2.105,0.379s0.966,0.588,1.277,1.008c0.313,0.42,0.528,0.9,0.648,1.439c0.12,0.541,0.18,1.087,0.18,1.639
			v0.936c-0.096-0.023-0.264-0.06-0.504-0.107s-0.521-0.102-0.846-0.162c-0.324-0.06-0.666-0.108-1.025-0.145
			c-0.36-0.035-0.709-0.054-1.045-0.054c-1.056,0-2.064,0.108-3.023,0.324c-0.961,0.216-1.801,0.552-2.52,1.008
			c-0.721,0.456-1.291,1.057-1.711,1.8c-0.42,0.744-0.63,1.633-0.63,2.664c0,1.08,0.181,2.004,0.54,2.771
			c0.36,0.77,0.864,1.387,1.512,1.854c0.648,0.468,1.416,0.81,2.305,1.026C90.734,35.892,91.707,36,92.764,36
			c0.743,0,1.494-0.031,2.25-0.09c0.756-0.061,1.457-0.127,2.105-0.199c0.648-0.071,1.23-0.148,1.746-0.233
			c0.516-0.084,0.918-0.149,1.206-0.198V23.58c0-1.057-0.12-2.021-0.36-2.898C99.471,19.806,99.069,19.05,98.506,18.414z
			 M96.795,32.939c-0.408,0.096-0.918,0.162-1.529,0.198c-0.612,0.036-1.314,0.054-2.106,0.054c-1.319,0-2.364-0.234-3.132-0.702
			s-1.152-1.302-1.152-2.502c0-0.647,0.156-1.17,0.469-1.565c0.312-0.396,0.701-0.708,1.17-0.937
			c0.468-0.228,0.983-0.378,1.548-0.45c0.563-0.072,1.098-0.107,1.603-0.107c0.768,0,1.422,0.042,1.961,0.126
			c0.541,0.084,0.93,0.187,1.17,0.306V32.939z M114.615,16.686c-0.36-0.06-0.727-0.107-1.098-0.145
			c-0.373-0.035-0.703-0.054-0.99-0.054c-1.465,0-2.785,0.126-3.961,0.378s-2.159,0.522-2.951,0.811v17.928h3.348V19.871
			c0.191-0.047,0.594-0.137,1.206-0.27c0.612-0.132,1.229-0.198,1.854-0.198c0.959,0,1.746,0.066,2.357,0.198
			c0.612,0.133,1.05,0.246,1.314,0.342l0.576-2.916c-0.145-0.048-0.367-0.102-0.666-0.162
			C115.305,16.806,114.975,16.746,114.615,16.686z M119.51,35.604h3.349v-18.72h-3.349V35.604z M121.166,9.107
			c-0.6,0-1.109,0.198-1.529,0.594c-0.42,0.396-0.631,0.931-0.631,1.603s0.211,1.206,0.631,1.602c0.42,0.396,0.93,0.595,1.529,0.595
			s1.11-0.198,1.53-0.595c0.42-0.396,0.63-0.93,0.63-1.602s-0.21-1.206-0.63-1.603C122.276,9.306,121.766,9.107,121.166,9.107z
			 M142.137,18.882c-0.589-0.757-1.375-1.345-2.358-1.765c-0.984-0.419-2.22-0.63-3.708-0.63c-1.656,0-3.12,0.108-4.393,0.324
			c-1.271,0.216-2.292,0.421-3.06,0.612v18.18h3.349V19.8c0.119-0.024,0.317-0.06,0.594-0.108c0.275-0.048,0.588-0.09,0.936-0.126
			s0.714-0.065,1.098-0.09c0.384-0.023,0.756-0.036,1.116-0.036c0.888,0,1.632,0.114,2.232,0.342c0.6,0.229,1.079,0.594,1.44,1.098
			c0.359,0.505,0.617,1.165,0.773,1.98c0.156,0.816,0.234,1.801,0.234,2.952v9.792h3.348V25.092c0-1.271-0.121-2.436-0.36-3.492
			C143.139,20.544,142.725,19.638,142.137,18.882z M162.17,20.682c-0.24-0.876-0.643-1.632-1.206-2.268
			c-0.564-0.637-1.309-1.129-2.231-1.477c-0.925-0.348-2.059-0.521-3.402-0.521c-1.176,0-2.269,0.09-3.276,0.27
			s-1.728,0.366-2.16,0.559l0.396,2.771c0.407-0.168,1.026-0.33,1.854-0.486c0.828-0.155,1.794-0.234,2.898-0.234
			c0.864,0,1.565,0.127,2.106,0.379c0.539,0.252,0.965,0.588,1.277,1.008c0.312,0.42,0.527,0.9,0.648,1.439
			c0.119,0.541,0.18,1.087,0.18,1.639v0.936c-0.096-0.023-0.265-0.06-0.504-0.107c-0.24-0.048-0.522-0.102-0.846-0.162
			c-0.324-0.06-0.666-0.108-1.026-0.145c-0.36-0.035-0.708-0.054-1.044-0.054c-1.057,0-2.064,0.108-3.024,0.324
			s-1.8,0.552-2.52,1.008s-1.29,1.057-1.71,1.8c-0.42,0.744-0.631,1.633-0.631,2.664c0,1.08,0.181,2.004,0.541,2.771
			c0.359,0.77,0.863,1.387,1.512,1.854s1.416,0.81,2.304,1.026c0.888,0.216,1.86,0.324,2.916,0.324c0.743,0,1.494-0.031,2.25-0.09
			c0.756-0.061,1.458-0.127,2.106-0.199c0.647-0.071,1.229-0.148,1.746-0.233c0.516-0.084,0.918-0.149,1.205-0.198V23.58
			C162.529,22.523,162.409,21.559,162.17,20.682z M159.254,32.939c-0.408,0.096-0.918,0.162-1.53,0.198s-1.313,0.054-2.106,0.054
			c-1.32,0-2.363-0.234-3.131-0.702c-0.77-0.468-1.152-1.302-1.152-2.502c0-0.647,0.156-1.17,0.468-1.565
			c0.312-0.396,0.702-0.708,1.17-0.937c0.468-0.228,0.983-0.378,1.548-0.45s1.098-0.107,1.602-0.107
			c0.769,0,1.423,0.042,1.963,0.126s0.93,0.187,1.17,0.306V32.939z"/>
	</g>
</g>
</svg>
