<?xml version="1.0" encoding="utf-8"?>
<!-- Generator: Adobe Illustrator 16.0.0, SVG Export Plug-In . SVG Version: 6.00 Build 0)  -->
<!DOCTYPE svg PUBLIC "-//W3C//DTD SVG 1.1//EN" "http://www.w3.org/Graphics/SVG/1.1/DTD/svg11.dtd">
<svg version="1.1" id="topic_x5F_moved" xmlns="http://www.w3.org/2000/svg" xmlns:xlink="http://www.w3.org/1999/xlink" x="0px"
	 y="0px" width="38px" height="38px" viewBox="0 0 38 38" enable-background="new 0 0 38 38" xml:space="preserve">
<path fill-rule="evenodd" clip-rule="evenodd" fill="#DEE0E0" d="M32,35H2c-1.104,0-2-0.896-2-2V2c0-1.104,0.896-2,2-2h20l12,12v21
	C34,34.104,33.104,35,32,35z"/>
<path fill-rule="evenodd" clip-rule="evenodd" fill="#ECF0F1" d="M32,34H2c-1.104,0-2-0.896-2-2V2c0-1.104,0.896-2,2-2h20l12,12v20
	C34,33.104,33.104,34,32,34z"/>
<path fill-rule="evenodd" clip-rule="evenodd" fill="#4B637D" d="M22,0l12,12H22V0z"/>
<path fill-rule="evenodd" clip-rule="evenodd" fill="#D5D8D9" d="M34,24L22,12h12V24z"/>
<g>
	<path fill-rule="evenodd" clip-rule="evenodd" fill="#DB5100" d="M14.971,22c8.938,0,10,7,10,7s1.094-13-10-13c0-2.25,0-4,0-4l-7,7
		l7,7C14.971,26,14.939,24.156,14.971,22z"/>
	<path fill-rule="evenodd" clip-rule="evenodd" fill="#F39B1D" d="M14.971,21c8.938,0,10,7,10,7s1.094-13-10-13c0-2.25,0-4,0-4l-7,7
		l7,7C14.971,25,14.939,23.156,14.971,21z"/>
	<path fill-rule="evenodd" clip-rule="evenodd" fill="#FFD66F" d="M7.995,18c17.281-1.5,17,8,17,8s0.563-11-10-11c0-1.688,0-4,0-4
		S11.026,14.969,7.995,18z"/>
</g>
</svg>
